<svg width="218" height="145" viewBox="0 0 218 145" fill="none" xmlns="http://www.w3.org/2000/svg">
<g clip-path="url(#clip0_194_3011)">
<path d="M75.2969 73.7969H67.0469V88H52.8906V73.7969H23.6406V63.7188L53.6875 19.4688H67.0469V62.5469H75.2969V73.7969ZM52.8906 62.5469V50.9219C52.8906 49.8281 52.9062 48.5312 52.9375 47.0312C53 45.5312 53.0625 44.0312 53.125 42.5312C53.1875 41.0312 53.25 39.7031 53.3125 38.5469C53.4062 37.3594 53.4688 36.5312 53.5 36.0625H53.125C52.5312 37.3438 51.9062 38.5938 51.25 39.8125C50.5938 41 49.8281 42.25 48.9531 43.5625L36.3906 62.5469H52.8906ZM133.112 53.7344C133.112 59.2656 132.675 64.2031 131.8 68.5469C130.956 72.8906 129.581 76.5781 127.675 79.6094C125.8 82.6406 123.331 84.9531 120.269 86.5469C117.206 88.1406 113.487 88.9375 109.112 88.9375C103.612 88.9375 99.0969 87.5469 95.5656 84.7656C92.0344 81.9531 89.425 77.9219 87.7375 72.6719C86.05 67.3906 85.2062 61.0781 85.2062 53.7344C85.2062 46.3281 85.9719 40 87.5031 34.75C89.0656 29.4688 91.5969 25.4219 95.0969 22.6094C98.5969 19.7969 103.269 18.3906 109.112 18.3906C114.581 18.3906 119.081 19.7969 122.612 22.6094C126.175 25.3906 128.816 29.4219 130.534 34.7031C132.253 39.9531 133.112 46.2969 133.112 53.7344ZM99.5969 53.7344C99.5969 58.9531 99.8781 63.3125 100.441 66.8125C101.034 70.2812 102.019 72.8906 103.394 74.6406C104.769 76.3906 106.675 77.2656 109.112 77.2656C111.519 77.2656 113.409 76.4062 114.784 74.6875C116.191 72.9375 117.191 70.3281 117.784 66.8594C118.378 63.3594 118.675 58.9844 118.675 53.7344C118.675 48.5156 118.378 44.1562 117.784 40.6562C117.191 37.1562 116.191 34.5312 114.784 32.7812C113.409 31 111.519 30.1094 109.112 30.1094C106.675 30.1094 104.769 31 103.394 32.7812C102.019 34.5312 101.034 37.1562 100.441 40.6562C99.8781 44.1562 99.5969 48.5156 99.5969 53.7344ZM194.772 73.7969H186.522V88H172.366V73.7969H143.116V63.7188L173.162 19.4688H186.522V62.5469H194.772V73.7969ZM172.366 62.5469V50.9219C172.366 49.8281 172.381 48.5312 172.412 47.0312C172.475 45.5312 172.537 44.0312 172.6 42.5312C172.662 41.0312 172.725 39.7031 172.787 38.5469C172.881 37.3594 172.944 36.5312 172.975 36.0625H172.6C172.006 37.3438 171.381 38.5938 170.725 39.8125C170.069 41 169.303 42.25 168.428 43.5625L155.866 62.5469H172.366Z" fill="white"/>
<line x1="28.5" y1="126" x2="190.5" y2="126" stroke="white" stroke-width="4"/>
</g>
<defs>
<clipPath id="clip0_194_3011">
<rect width="218" height="145" fill="white"/>
</clipPath>
</defs>
</svg>
