<svg width="228" height="36" viewBox="0 0 228 36" fill="none" xmlns="http://www.w3.org/2000/svg">
<path d="M35.6572 28.5H31.7852V9.93945H42.4238V13.1641H35.6572V17.9502H41.9541V21.1621H35.6572V28.5ZM47.6147 28.5V9.93945H51.5502V28.5H47.6147ZM74.2479 28.5H69.246L61.1718 14.459H61.0575C61.0914 15.043 61.121 15.6312 61.1464 16.2236C61.1718 16.8161 61.1971 17.4085 61.2225 18.001C61.2479 18.585 61.2733 19.1732 61.2987 19.7656V28.5H57.7821V9.93945H62.746L70.8075 23.8408H70.8964C70.8794 23.2653 70.8583 22.694 70.8329 22.127C70.8075 21.5599 70.7821 20.9928 70.7567 20.4258C70.7398 19.8587 70.7229 19.2917 70.7059 18.7246V9.93945H74.2479V28.5ZM95.8919 19.042C95.8919 21.1325 95.4899 22.8802 94.6859 24.2852C93.8903 25.6816 92.735 26.7354 91.22 27.4463C89.7051 28.1488 87.8812 28.5 85.7484 28.5H80.4925V9.93945H86.3196C88.2663 9.93945 89.9547 10.2865 91.3851 10.9805C92.8154 11.666 93.9241 12.6859 94.7113 14.04C95.4984 15.3857 95.8919 17.0531 95.8919 19.042ZM91.804 19.1436C91.804 17.7725 91.6009 16.6468 91.1946 15.7666C90.7969 14.8779 90.2044 14.222 89.4173 13.7988C88.6387 13.3757 87.6738 13.1641 86.5228 13.1641H84.428V25.25H86.1165C88.0377 25.25 89.4639 24.738 90.3948 23.7139C91.3343 22.6898 91.804 21.1663 91.804 19.1436ZM112.661 28.5L111.315 24.082H104.549L103.203 28.5H98.9627L105.513 9.86328H110.325L116.901 28.5H112.661ZM110.376 20.7812L109.03 16.4648C108.945 16.1771 108.831 15.8089 108.687 15.3604C108.552 14.9033 108.412 14.4421 108.268 13.9766C108.133 13.5026 108.023 13.0921 107.938 12.7451C107.854 13.0921 107.735 13.5238 107.583 14.04C107.439 14.5479 107.299 15.0303 107.164 15.4873C107.028 15.9443 106.931 16.2702 106.872 16.4648L105.539 20.7812H110.376ZM120.81 9.93945H126.586C129.057 9.93945 130.928 10.2865 132.197 10.9805C133.467 11.6745 134.102 12.8932 134.102 14.6367C134.102 15.3392 133.988 15.974 133.759 16.541C133.539 17.1081 133.217 17.5736 132.794 17.9375C132.371 18.3014 131.855 18.5384 131.245 18.6484V18.7754C131.863 18.9023 132.422 19.1224 132.921 19.4355C133.42 19.7402 133.818 20.1888 134.114 20.7812C134.419 21.3652 134.571 22.1439 134.571 23.1172C134.571 24.2428 134.296 25.2077 133.746 26.0117C133.196 26.8158 132.409 27.4336 131.385 27.8652C130.369 28.2884 129.159 28.5 127.754 28.5H120.81V9.93945ZM124.745 17.29H127.03C128.173 17.29 128.964 17.1123 129.404 16.7568C129.845 16.3929 130.065 15.8597 130.065 15.1572C130.065 14.4463 129.802 13.9385 129.278 13.6338C128.761 13.3206 127.94 13.1641 126.815 13.1641H124.745V17.29ZM124.745 20.4131V25.25H127.31C128.495 25.25 129.32 25.0215 129.785 24.5645C130.251 24.1074 130.484 23.4938 130.484 22.7236C130.484 22.2666 130.382 21.8646 130.179 21.5176C129.976 21.1706 129.633 20.8997 129.151 20.7051C128.677 20.5104 128.021 20.4131 127.183 20.4131H124.745ZM139.839 28.5V9.93945H143.774V25.25H151.302V28.5H139.839Z" fill="#3F37C9" fill-opacity="0.87"/>
<path d="M23 14.75C23 11.44 20.31 8.75 17 8.75C13.69 8.75 11 11.44 11 14.75C11 19.25 17 25.75 17 25.75C17 25.75 23 19.25 23 14.75ZM15 14.75C15 13.65 15.9 12.75 17 12.75C18.1 12.75 19 13.65 19 14.75C19 15.85 18.11 16.75 17 16.75C15.9 16.75 15 15.85 15 14.75ZM10 26.75V28.75H24V26.75H10Z" fill="#F72585"/>
</svg>
